PathFileType   4   (X/Y/Z)
DataRate	CameraRate	NumFrames	NumMarkers	Units	OrigDataRate	OrigDataStartFrame	OrigNumFrames
120.0	120.0	8	37	mm	120.0	44	116
Frame#	Time	midhip	hip_r	hip_l	knee_r	knee_l	ankle_r	ankle_l	midasis	asis_r	asis_l	psis_r	psis_l	epicondLat_r	epicondLat_l	epicondMed_r	epicondMed_l	malleolusLat_r	malleolusLat_l	malleolusMedv_r	malleolusMedv_l	neck	subclavicle_r	subclavicle_l	sternalnotch	xyphoidprocess	thighwand_r	thighwand_l	upperleg1_r	upperleg1_l	upperleg2_r	upperleg2_l	shankwand_r	shankwand_l	lowerleg1_r	lowerleg1_l	toe_r	toe_l
 	 	X1	Y1	Z1	X2	Y2	Z2	X3	Y3	Z3	X4	Y4	Z4	X5	Y5	Z5	X6	Y6	Z6	X7	Y7	Z7	X8	Y8	Z8	X9	Y9	Z9	X10	Y10	Z10	X11	Y11	Z11	X12	Y12	Z12	X13	Y13	Z13	X14	Y14	Z14	X15	Y15	Z15	X16	Y16	Z16	X17	Y17	Z17	X18	Y18	Z18	X19	Y19	Z19	X20	Y20	Z20	X21	Y21	Z21	X22	Y22	Z22	X23	Y23	Z23	X24	Y24	Z24	X25	Y25	Z25	X26	Y26	Z26	X27	Y27	Z27	X28	Y28	Z28	X29	Y29	Z29	X30	Y30	Z30	X31	Y31	Z31	X32	Y32	Z32	X33	Y33	Z33	X34	Y34	Z34	X35	Y35	Z35	X36	Y36	Z36	X37	Y37	Z37

	44	0.46667	1619.181	654.722	-160.325	1608.567	664.032	-93.407	1621.479	657.589	-218.406	1490.901	380.375	-119.338	1792.549	376.563	-211.527	1357.280	76.279	-125.116	1954.209	96.032	-233.847	1680.488	724.464	-152.425	1670.853	729.272	-59.152	1690.123	719.656	-245.698	1535.740	764.764	-159.736	1541.904	753.005	-213.161	1488.864	376.620	-69.019	1785.360	370.983	-260.691	1489.848	385.774	-168.326	1805.123	374.316	-161.755	1351.208	78.322	-92.234	1940.148	90.396	-264.843	1355.399	86.818	-152.177	1957.560	106.683	-206.016	1590.533	1108.456	-163.654	1674.513	1064.733	-105.149	1666.584	1066.315	-231.840	1665.342	1054.527	-170.925	1688.939	911.946	-173.391	1523.188	458.938	17.045	1841.165	530.180	-268.020	1570.533	510.602	-43.496	1758.015	542.247	-204.065	1556.268	431.467	-67.116	1798.689	464.520	-194.984	1377.774	176.045	-16.530	1960.752	223.009	-287.168	1407.617	224.412	-74.668	1891.647	246.789	-248.944	1444.107	38.710	-122.922	2040.478	120.593	-254.910
	45	0.47500	1630.972	652.810	-160.884	1620.350	661.912	-93.837	1633.228	655.855	-218.858	1499.513	379.646	-119.399	1805.120	375.536	-211.450	1359.004	78.623	-124.524	1964.771	93.719	-232.685	1692.350	722.427	-152.673	1682.729	726.953	-59.274	1701.970	717.902	-246.072	1547.719	762.987	-159.809	1553.766	751.345	-213.319	1497.377	376.003	-69.076	1798.553	370.207	-260.729	1498.760	384.417	-168.476	1818.116	374.030	-160.643	1353.042	80.846	-91.634	1950.937	88.228	-263.809	1357.309	89.111	-151.580	1967.203	103.904	-204.523	1601.797	1106.400	-164.667	1685.831	1062.886	-105.806	1678.001	1064.324	-232.688	1676.752	1052.578	-171.763	1700.598	910.056	-173.967	1532.570	458.143	16.951	1854.101	529.826	-266.614	1579.880	508.528	-43.669	1770.677	541.732	-203.269	1565.406	430.108	-67.134	1811.532	464.253	-193.931	1381.978	178.048	-16.159	1972.865	220.581	-285.823	1412.943	225.534	-74.363	1903.810	244.921	-248.176	1444.655	38.785	-122.746	2051.244	117.661	-252.778
	46	0.48333	1643.083	651.124	-161.579	1632.435	659.952	-94.410	1645.213	654.417	-219.466	1508.549	378.996	-119.521	1817.834	374.768	-211.450	1361.060	81.294	-123.927	1973.676	90.712	-231.198	1704.508	720.587	-153.033	1694.950	724.728	-59.488	1714.066	716.447	-246.577	1560.032	761.470	-159.742	1565.895	750.008	-213.359	1506.352	375.467	-69.193	1811.891	369.684	-260.834	1507.748	384.065	-168.741	1830.428	373.823	-160.543	1355.209	83.706	-91.030	1960.032	85.399	-262.437	1359.532	91.815	-151.046	1974.892	100.132	-202.807	1613.089	1104.586	-165.748	1697.270	1061.399	-106.659	1689.465	1062.618	-233.627	1688.268	1050.936	-172.678	1712.507	908.509	-174.621	1542.428	457.430	16.785	1867.265	529.815	-265.347	1590.658	507.000	-43.982	1783.414	541.676	-202.798	1575.019	428.843	-67.382	1824.126	464.260	-193.461	1386.551	180.343	-15.810	1984.119	217.205	-284.328	1418.434	226.983	-74.174	1915.321	242.550	-247.209	1445.328	38.879	-122.589	2060.410	113.336	-250.257
	47	0.49167	1655.507	649.653	-162.381	1644.831	658.167	-95.093	1657.442	653.258	-220.192	1518.036	378.422	-119.696	1830.619	374.212	-211.495	1363.508	84.285	-123.318	1981.137	87.195	-229.467	1716.975	718.938	-153.486	1707.529	722.615	-59.786	1726.421	715.261	-247.186	1572.685	760.206	-159.582	1578.304	748.989	-213.318	1515.801	375.008	-69.361	1825.279	369.356	-260.972	1517.071	384.252	-168.999	1843.435	374.107	-160.562	1357.764	86.898	-90.418	1967.649	82.084	-260.807	1362.145	94.844	-150.555	1980.856	95.613	-200.803	1624.380	1102.959	-166.922	1708.842	1060.243	-107.764	1701.004	1061.213	-234.669	1699.897	1049.582	-173.676	1724.797	907.315	-175.445	1552.743	456.811	16.546	1880.609	530.061	-264.247	1602.645	506.012	-44.454	1796.234	541.981	-202.591	1585.136	427.539	-67.789	1837.139	464.639	-193.176	1391.525	182.935	-15.478	1994.563	213.071	-282.731	1424.181	228.686	-74.069	1926.171	239.699	-246.164	1446.144	38.987	-122.449	2068.166	107.844	-247.469
	48	0.50000	1668.226	648.390	-163.253	1657.541	656.570	-95.847	1669.913	652.362	-220.996	1528.022	377.901	-119.913	1843.397	373.839	-211.560	1366.415	87.575	-122.685	1987.416	83.396	-227.587	1729.756	717.475	-154.013	1720.478	720.631	-60.158	1739.034	714.319	-247.868	1585.662	759.192	-159.369	1590.986	748.284	-213.228	1525.751	374.609	-69.571	1838.612	369.179	-261.112	1526.706	384.082	-169.112	1856.922	374.802	-160.350	1360.769	90.403	-89.786	1974.062	78.509	-259.020	1365.271	98.192	-150.045	1985.401	90.631	-198.509	1635.727	1101.551	-168.194	1720.535	1059.372	-108.986	1712.656	1060.086	-235.722	1711.647	1048.495	-174.769	1737.340	906.424	-176.336	1563.500	456.290	16.236	1894.081	530.469	-263.349	1614.575	505.069	-44.988	1809.207	542.542	-202.448	1595.504	426.241	-68.181	1850.443	465.335	-192.851	1396.951	185.813	-15.155	2004.291	208.435	-281.062	1430.505	230.600	-73.893	1936.227	236.311	-244.997	1447.115	39.105	-122.320	2074.756	101.476	-244.523
	49	0.50833	1681.211	647.340	-164.156	1670.562	655.173	-96.644	1682.612	651.720	-221.847	1538.563	377.398	-120.159	1856.100	373.635	-211.621	1369.849	91.133	-122.011	1992.793	79.557	-225.657	1742.840	716.204	-154.600	1733.793	718.796	-60.599	1751.887	713.611	-248.601	1598.929	758.422	-159.127	1603.910	747.893	-213.103	1536.244	374.238	-69.811	1851.802	369.129	-261.232	1536.769	383.567	-169.113	1870.360	375.557	-160.294	1364.293	94.195	-89.117	1979.580	74.920	-257.187	1368.900	101.778	-149.520	1988.669	85.380	-195.987	1647.173	1100.343	-169.513	1732.354	1058.719	-110.253	1724.451	1059.199	-236.781	1723.525	1047.660	-175.958	1750.084	905.779	-177.280	1574.699	455.858	15.857	1907.634	530.954	-262.673	1626.278	504.099	-45.566	1822.229	543.166	-202.439	1606.200	425.199	-68.490	1863.722	466.115	-192.690	1402.895	188.947	-14.824	2013.443	203.585	-279.326	1437.352	232.674	-73.791	1945.327	232.413	-243.610	1448.243	39.224	-122.192	2080.453	94.561	-241.509
	50	0.51667	1694.418	646.515	-165.068	1683.877	653.984	-97.468	1695.514	651.335	-222.730	1549.724	376.861	-120.418	1868.677	373.612	-211.661	1373.880	94.924	-121.275	1997.530	75.900	-223.772	1756.198	715.136	-155.243	1747.453	717.127	-61.112	1764.942	713.146	-249.373	1612.434	757.891	-158.861	1617.019	747.815	-212.944	1547.335	373.847	-70.064	1864.795	369.212	-261.315	1547.919	382.699	-169.150	1883.251	376.174	-160.394	1368.409	98.237	-88.391	1984.500	71.548	-255.419	1373.035	105.589	-148.947	1990.776	79.971	-193.352	1658.681	1099.258	-170.865	1744.289	1058.265	-111.671	1736.382	1058.510	-237.948	1735.543	1047.095	-177.231	1763.115	905.361	-178.361	1586.356	455.490	15.416	1921.221	531.456	-262.207	1638.204	503.202	-46.203	1835.288	543.780	-202.792	1617.624	424.411	-68.711	1876.791	466.743	-192.765	1409.435	192.292	-14.465	2022.188	198.808	-277.496	1444.746	234.939	-73.768	1953.207	227.945	-242.013	1449.527	39.338	-122.057	2085.523	87.429	-238.498
	51	0.52500	1707.800	645.937	-165.983	1697.457	653.003	-98.325	1708.577	651.217	-223.649	1561.565	376.230	-120.665	1881.096	373.792	-211.662	1378.575	98.909	-120.458	2001.828	72.596	-222.007	1769.779	714.295	-155.950	1761.418	715.639	-61.715	1778.140	712.951	-250.184	1626.108	757.589	-158.554	1630.242	748.041	-212.734	1559.089	373.381	-70.306	1877.571	369.453	-261.348	1559.868	381.788	-169.227	1895.909	376.690	-160.514	1373.192	102.486	-87.587	1989.071	68.575	-253.808	1377.832	109.545	-148.254	1993.093	75.347	-191.002	1670.319	1098.296	-172.340	1756.327	1058.060	-113.236	1748.472	1058.018	-239.257	1747.710	1046.853	-178.588	1776.429	905.198	-179.521	1598.510	455.150	14.921	1934.807	531.952	-261.899	1650.707	502.281	-46.833	1848.495	544.316	-203.640	1629.683	423.715	-68.860	1889.875	467.176	-193.072	1416.656	195.791	-14.052	2030.684	194.341	-275.521	1452.762	237.353	-73.648	1960.562	223.559	-240.273	1450.961	39.447	-121.906	2090.177	80.377	-235.539
